<svg xmlns="http://www.w3.org/2000/svg" width="16" height="17" viewBox="0 0 16 17" fill="none">
    <path fill-rule="evenodd" clip-rule="evenodd" d="M9.41735 4.79395H6.5843C6.09384 4.79393 5.68161 4.79392 5.34883 4.83522C4.99596 4.87902 4.67459 4.97483 4.39675 5.20745C4.11891 5.44007 3.96809 5.7396 3.86295 6.07927C3.76379 6.39962 3.69134 6.80541 3.60514 7.28821L3.17308 9.70777C2.99059 10.7296 2.84442 11.5481 2.82154 12.1962C2.79791 12.8658 2.90082 13.4433 3.30008 13.9202C3.69934 14.3971 4.24982 14.5999 4.91312 14.6943C5.55514 14.7857 6.38657 14.7857 7.4246 14.7857H8.57701C9.615 14.7857 10.4464 14.7857 11.0885 14.6943C11.7518 14.5999 12.3023 14.3971 12.7015 13.9202C13.1008 13.4433 13.2037 12.8658 13.1801 12.1962C13.1572 11.5481 13.011 10.7296 12.8285 9.70777L12.3964 7.28821C12.3103 6.80539 12.2378 6.39962 12.1387 6.07927C12.0335 5.7396 11.8827 5.44007 11.6048 5.20745C11.327 4.97483 11.0057 4.87902 10.6528 4.83522C10.32 4.79392 9.90779 4.79393 9.41735 4.79395ZM8.48406 7.53362C8.48406 7.26662 8.26759 7.05015 8.00058 7.05015C7.73358 7.05015 7.51711 7.26662 7.51711 7.53362V10.8788L6.73085 10.0926C6.54207 9.9038 6.23595 9.9038 6.04714 10.0926C5.85833 10.2814 5.85833 10.5875 6.04714 10.7763L7.65873 12.3879C7.84755 12.5767 8.15362 12.5767 8.34243 12.3879L9.95401 10.7763C10.1428 10.5875 10.1428 10.2814 9.95401 10.0926C9.76519 9.9038 9.45912 9.9038 9.27031 10.0926L8.48406 10.8788V7.53362Z" fill="#C0C0C0"/>
    <path fill-rule="evenodd" clip-rule="evenodd" d="M4.0918 2.21485C4.10631 2.21485 4.12086 2.21485 4.13548 2.21485L11.9084 2.21485C12.4782 2.21481 12.9718 2.21478 13.3674 2.27004C13.7942 2.32965 14.2009 2.46439 14.5282 2.80435C14.8522 3.14088 14.9774 3.55322 15.0332 3.98475C15.0858 4.39076 15.0858 4.89898 15.0858 5.49433V5.53583C15.0858 5.69868 15.0872 5.85514 15.0885 6.00414C15.0921 6.39252 15.0951 6.73019 15.0714 6.99809C15.0345 7.41405 14.9263 7.80108 14.5988 8.14126C14.3519 8.39775 13.9438 8.40555 13.6874 8.1586C13.4309 7.9117 13.4231 7.50365 13.67 7.24715C13.7199 7.19536 13.765 7.13405 13.7872 6.88423C13.805 6.68243 13.8028 6.44143 13.7997 6.09359C13.7982 5.93274 13.7965 5.74905 13.7965 5.53583C13.7965 4.88745 13.7952 4.46362 13.7547 4.15023C13.7162 3.85295 13.6528 3.75391 13.5994 3.69849C13.5494 3.64652 13.4638 3.58528 13.1891 3.54691C12.8932 3.50558 12.4909 3.50411 11.8647 3.50411H4.13548C3.5093 3.50411 3.107 3.50558 2.81113 3.5469C2.5364 3.58528 2.45082 3.64652 2.40078 3.69849C2.34743 3.75391 2.284 3.85295 2.24552 4.15023C2.20496 4.46362 2.20369 4.88745 2.20369 5.53583C2.20369 5.75017 2.20199 5.93465 2.20049 6.09608C2.19727 6.44267 2.19505 6.683 2.21284 6.88444C2.23491 7.13432 2.28003 7.19549 2.32975 7.24715C2.57666 7.50365 2.5689 7.9117 2.31241 8.1586C2.05592 8.40555 1.64784 8.39775 1.40093 8.14126C1.07334 7.80095 0.965321 7.41379 0.928584 6.99788C0.90497 6.73058 0.908062 6.39362 0.911617 6.00619C0.91299 5.85656 0.914434 5.69941 0.914434 5.53583C0.914434 5.52195 0.914434 5.50811 0.914434 5.49433C0.914402 4.89897 0.914382 4.39076 0.966933 3.98475C1.02278 3.55322 1.148 3.14088 1.47196 2.80435C1.79923 2.46439 2.20593 2.32965 2.6328 2.27004C3.02845 2.21478 3.52193 2.21481 4.0918 2.21485Z" fill="#C0C0C0"/>
</svg>
