<svg xmlns="http://www.w3.org/2000/svg" width="24" height="24" viewBox="0 0 24 24" fill="none">
    <path d="M19.2097 6.35952C18.1697 4.25952 16.1597 2.70952 13.8297 2.19952C11.3897 1.65952 8.88973 2.23952 6.97973 3.77952C5.05973 5.30952 3.96973 7.59952 3.96973 10.0495C3.96973 12.6395 5.51973 15.3495 7.85973 16.9195V17.7495C7.84973 18.0295 7.83973 18.4595 8.17973 18.8095C8.52973 19.1695 9.04973 19.2095 9.45973 19.2095H14.5897C15.1297 19.2095 15.5397 19.0595 15.8197 18.7795C16.1997 18.3895 16.1897 17.8895 16.1797 17.6195V16.9195C19.2797 14.8295 21.2297 10.4195 19.2097 6.35952Z" fill="#2BCC7F"/>
    <path d="M15.2602 22.0004C15.2002 22.0004 15.1302 21.9904 15.0702 21.9704C13.0602 21.4004 10.9502 21.4004 8.94015 21.9704C8.57015 22.0704 8.18015 21.8604 8.08015 21.4904C7.97015 21.1204 8.19015 20.7304 8.56015 20.6304C10.8202 19.9904 13.2002 19.9904 15.4602 20.6304C15.8302 20.7404 16.0502 21.1204 15.9402 21.4904C15.8402 21.8004 15.5602 22.0004 15.2602 22.0004Z" fill="#2BCC7F"/>
</svg>