<svg xmlns="http://www.w3.org/2000/svg" width="15" height="15" viewBox="0 0 15 15" fill="none">
    <path d="M9.73837 11.5398C9.68551 12.87 8.577 13.9995 7.09198 13.9631C6.74649 13.9547 6.31948 13.8343 5.46547 13.5934C3.41014 13.0136 1.62592 12.0393 1.19783 9.85658C1.11914 9.45542 1.11914 9.00392 1.11914 8.10098V6.89817C1.11914 5.99524 1.11914 5.54377 1.19783 5.14255C1.62592 2.95986 3.41014 1.98554 5.46547 1.4058C6.31948 1.1649 6.74649 1.04446 7.09198 1.03601C8.577 0.999679 9.68551 2.12913 9.73837 3.45932" stroke="#787486" stroke-width="0.861923" stroke-linecap="round"/>
    <path d="M14.0484 7.49977H6.14746M14.0484 7.49977C14.0484 6.99684 12.616 6.05715 12.2527 5.7041M14.0484 7.49977C14.0484 8.00271 12.616 8.94242 12.2527 9.29545" stroke="#787486" stroke-width="0.861923" stroke-linecap="round" stroke-linejoin="round"/>
</svg>