<svg xmlns="http://www.w3.org/2000/svg" width="24" height="24" viewBox="0 0 24 24" fill="none">
    <path d="M3.5 12V19.5C3.5 20.6046 4.39543 21.5 5.5 21.5H18.5C19.6046 21.5 20.5 20.6046 20.5 19.5V12" stroke="#787486" stroke-width="1.5" stroke-linejoin="round"/>
    <path d="M12 11H12.009" stroke="#787486" stroke-width="2" stroke-linecap="round" stroke-linejoin="round"/>
    <path d="M15.5 6L15.1227 3.35858C15.0523 2.86593 14.6304 2.5 14.1327 2.5H9.8673C9.36964 2.5 8.94772 2.86593 8.87735 3.35858L8.5 6" stroke="#787486" stroke-width="1.5" stroke-linecap="round" stroke-linejoin="round"/>
    <path d="M20.5 6H3.5C2.94772 6 2.5 6.44772 2.5 7V9.95671C2.5 10.0836 2.52391 10.2113 2.57458 10.3276C5.52552 17.1031 19.4897 15.9981 21.4539 10.2909C21.4861 10.1974 21.5 10.0985 21.5 9.99961V7C21.5 6.44772 21.0523 6 20.5 6Z" stroke="#787486" stroke-width="1.5" stroke-linejoin="round"/>
</svg>