<svg xmlns="http://www.w3.org/2000/svg" width="16" height="17" viewBox="0 0 16 17" fill="none">
    <path fill-rule="evenodd" clip-rule="evenodd" d="M9.30618 2.21484C10.4549 2.21482 11.3808 2.21481 12.109 2.31249C12.8651 2.41391 13.5017 2.63086 14.0073 3.13529C14.5129 3.6397 14.7304 4.27481 14.832 5.02913C14.9299 5.75565 14.9299 6.67941 14.9299 7.82545V9.17453C14.9299 10.3206 14.9299 11.2443 14.832 11.9709C14.7304 12.7252 14.5129 13.3603 14.0073 13.8647C13.5017 14.3691 12.8651 14.5861 12.109 14.6875C11.3808 14.7851 10.4549 14.7851 9.30618 14.7851H6.69402C5.54529 14.7851 4.61938 14.7851 3.89115 14.6875C3.13508 14.5861 2.49849 14.3691 1.9929 13.8647C1.48731 13.3603 1.26984 12.7252 1.16819 11.9709C1.07028 11.2443 1.07029 10.3206 1.07031 9.17453V7.82551C1.07029 6.67948 1.07028 5.75566 1.16819 5.02912C1.26984 4.27481 1.48731 3.6397 1.9929 3.13529C2.49849 2.63086 3.13508 2.41391 3.89115 2.31249C4.61938 2.21481 5.54529 2.21482 6.69402 2.21484H9.30618ZM6.71083 6.24378C6.71083 6.77782 6.27792 7.21073 5.74388 7.21073C5.20985 7.21073 4.77694 6.77782 4.77694 6.24378C4.77694 5.70975 5.20985 5.27684 5.74388 5.27684C6.27792 5.27684 6.71083 5.70975 6.71083 6.24378ZM2.88383 12.9759C2.65135 12.7439 2.49978 12.4183 2.41691 11.8033L2.41189 11.765L4.23184 9.71757C4.37355 9.55815 4.57666 9.46694 4.78995 9.46694C4.988 9.46694 5.17793 9.54558 5.31796 9.68566L6.71083 11.0785L9.71294 8.0764C9.8545 7.93491 10.0465 7.85536 10.2466 7.85536C10.4582 7.85536 10.66 7.94413 10.8029 8.10013L13.6385 11.1935C13.6258 11.4168 13.6081 11.6188 13.5833 11.8033C13.5004 12.4183 13.3488 12.7439 13.1163 12.9759C12.8839 13.2078 12.5575 13.359 11.9412 13.4417C11.3067 13.5268 10.4657 13.5281 9.26009 13.5281H6.74016C5.53442 13.5281 4.69352 13.5268 4.05904 13.4417C3.44269 13.359 3.1163 13.2078 2.88383 12.9759Z" fill="white"/>
</svg>